<svg width="135" height="139" viewBox="0 0 135 139" fill="none" xmlns="http://www.w3.org/2000/svg" xmlns:xlink="http://www.w3.org/1999/xlink">
<g data-figma-bg-blur-radius="3">
<path d="M0 10C0 4.47715 4.47715 0 10 0H125C130.523 0 135 4.47715 135 10V129C135 134.523 130.523 139 125 139H10C4.47715 139 0 134.523 0 129V10Z" fill="url(#paint0_radial_2336_9709)" fill-opacity="0.85"></path>
<path d="M12.4175 21.7129V14.5529H15.3125C16.0825 14.5529 16.6908 14.7596 17.1375 15.1729C17.5842 15.5829 17.8075 16.1529 17.8075 16.8829C17.8075 17.5929 17.5558 18.1546 17.0525 18.5679C16.5525 18.9812 15.9575 19.1879 15.2675 19.1879H13.0975V18.0329H15.0175C15.3675 18.0329 15.6492 17.9396 15.8625 17.7529C16.0758 17.5662 16.1825 17.3029 16.1825 16.9629C16.1825 16.6196 16.0758 16.3629 15.8625 16.1929C15.6525 16.0229 15.3775 15.9379 15.0375 15.9379H14.0125V21.7129H12.4175ZM16.5825 21.7129L14.3425 18.6079L16.0775 18.5479L18.4675 21.7129H16.5825ZM21.7902 21.8929C20.9035 21.8929 20.1868 21.6312 19.6402 21.1079C19.0935 20.5846 18.8202 19.8996 18.8202 19.0529C18.8202 18.2696 19.0818 17.5996 19.6052 17.0429C20.1318 16.4829 20.8535 16.2029 21.7702 16.2029C22.5635 16.2029 23.2152 16.4462 23.7252 16.9329C24.2352 17.4196 24.4902 18.0246 24.4902 18.7479V19.4479H19.6252V18.5879H23.0602C23.0402 18.2479 22.9168 17.9662 22.6902 17.7429C22.4635 17.5196 22.1552 17.4079 21.7652 17.4079C21.3552 17.4079 21.0168 17.5496 20.7502 17.8329C20.4868 18.1162 20.3552 18.5162 20.3552 19.0329C20.3552 19.5796 20.5018 19.9929 20.7952 20.2729C21.0918 20.5529 21.4652 20.6929 21.9152 20.6929C22.1052 20.6929 22.2802 20.6712 22.4402 20.6279C22.6002 20.5812 22.7502 20.5179 22.8902 20.4379C23.0302 20.3546 23.1902 20.2212 23.3702 20.0379L24.2602 20.8379C24.0235 21.1112 23.7902 21.3196 23.5602 21.4629C23.3302 21.6029 23.0752 21.7096 22.7952 21.7829C22.5185 21.8562 22.1835 21.8929 21.7902 21.8929ZM25.6505 23.9079V16.3829H27.1855V17.5079L26.8355 17.1329H27.2205C27.3838 16.8696 27.6238 16.6496 27.9405 16.4729C28.2605 16.2929 28.6288 16.2029 29.0455 16.2029C29.7521 16.2029 30.3488 16.4612 30.8355 16.9779C31.3255 17.4946 31.5705 18.1829 31.5705 19.0429C31.5705 19.9029 31.3171 20.5929 30.8105 21.1129C30.3071 21.6329 29.7088 21.8929 29.0155 21.8929C28.5955 21.8929 28.2338 21.8096 27.9305 21.6429C27.6271 21.4729 27.4038 21.2729 27.2605 21.0429H27.2205V23.9079H25.6505ZM28.5755 20.5929C29.0155 20.5929 29.3588 20.4479 29.6055 20.1579C29.8521 19.8679 29.9755 19.4946 29.9755 19.0379C29.9755 18.5779 29.8471 18.2079 29.5905 17.9279C29.3371 17.6446 29.0005 17.5029 28.5805 17.5029C28.1505 17.5029 27.8071 17.6479 27.5505 17.9379C27.2938 18.2279 27.1655 18.5962 27.1655 19.0429C27.1655 19.5029 27.2888 19.8762 27.5355 20.1629C27.7855 20.4496 28.1321 20.5929 28.5755 20.5929ZM35.371 21.8929C34.4544 21.8929 33.7177 21.6262 33.161 21.0929C32.6044 20.5562 32.326 19.8762 32.326 19.0529C32.326 18.2229 32.606 17.5396 33.166 17.0029C33.7294 16.4662 34.4644 16.1979 35.371 16.1979C36.281 16.1979 37.016 16.4679 37.576 17.0079C38.136 17.5479 38.416 18.2296 38.416 19.0529C38.416 19.8696 38.1377 20.5479 37.581 21.0879C37.0277 21.6246 36.291 21.8929 35.371 21.8929ZM35.371 20.5579C35.8077 20.5579 36.1577 20.4196 36.421 20.1429C36.6877 19.8629 36.821 19.4996 36.821 19.0529C36.821 18.6129 36.691 18.2496 36.431 17.9629C36.171 17.6762 35.8177 17.5329 35.371 17.5329C34.921 17.5329 34.566 17.6762 34.306 17.9629C34.046 18.2462 33.916 18.6096 33.916 19.0529C33.916 19.5029 34.0477 19.8662 34.311 20.1429C34.5744 20.4196 34.9277 20.5579 35.371 20.5579ZM39.5567 21.7129V16.3779H41.0467V17.3479L40.9067 17.1979H41.0867C41.1967 16.8946 41.3817 16.6529 41.6417 16.4729C41.9017 16.2896 42.1884 16.1979 42.5017 16.1979C42.6351 16.1979 42.7634 16.2129 42.8867 16.2429C43.0101 16.2696 43.1217 16.3062 43.2217 16.3529C43.3217 16.3962 43.3717 16.4179 43.3717 16.4179L43.0967 17.8079C43.0967 17.8079 43.0517 17.7862 42.9617 17.7429C42.8717 17.6962 42.7734 17.6596 42.6667 17.6329C42.5601 17.6029 42.4501 17.5879 42.3367 17.5879C41.9967 17.5879 41.7101 17.7112 41.4767 17.9579C41.2434 18.2012 41.1267 18.5846 41.1267 19.1079V21.7129H39.5567ZM46.4667 21.8929C45.9133 21.8929 45.48 21.7479 45.1667 21.4579C44.8567 21.1679 44.7017 20.7229 44.7017 20.1229V15.0329H46.2717V19.9829C46.2717 20.2129 46.3217 20.3812 46.4217 20.4879C46.5217 20.5946 46.68 20.6479 46.8967 20.6479C46.9833 20.6479 47.07 20.6379 47.1567 20.6179C47.2433 20.5979 47.3367 20.5662 47.4367 20.5229C47.5367 20.4762 47.5867 20.4529 47.5867 20.4529L47.8717 21.5329C47.8717 21.5329 47.7983 21.5679 47.6517 21.6379C47.5083 21.7046 47.3383 21.7629 47.1417 21.8129C46.9483 21.8662 46.7233 21.8929 46.4667 21.8929ZM43.8067 17.5929V16.3779H47.6367V17.5929H43.8067Z" fill="#00224A"></path>
<rect x="11.4675" y="36.1394" width="5.59585" height="5.59585" rx="2.79793" fill="#0070F4"></rect>
<path d="M21.5893 41.9373V36.7226H22.5588V41.9373H21.5893ZM22.0839 35.6895C21.9076 35.6895 21.7558 35.6258 21.6285 35.4985C21.5012 35.3712 21.4376 35.2227 21.4376 35.053C21.4376 34.8734 21.5012 34.7249 21.6285 34.6074C21.7558 34.4866 21.9076 34.4262 22.0839 34.4262C22.2667 34.4262 22.4168 34.4866 22.5343 34.6074C22.6519 34.7249 22.7106 34.8734 22.7106 35.053C22.7106 35.2227 22.6502 35.3712 22.5295 35.4985C22.4119 35.6258 22.2634 35.6895 22.0839 35.6895ZM24.171 41.9373V36.7226H25.1013V37.6333L24.9691 37.4522H25.1306C25.2971 37.191 25.5387 36.9772 25.8553 36.8108C26.1719 36.641 26.5326 36.5561 26.9374 36.5561C27.5576 36.5561 28.0326 36.721 28.3623 37.0507C28.6952 37.3771 28.8617 37.8308 28.8617 38.4119V41.9373H27.8922V38.6224C27.8922 38.2307 27.7959 37.9288 27.6033 37.7166C27.4107 37.5011 27.0957 37.3934 26.6583 37.3934C26.2209 37.3934 25.8586 37.5338 25.5713 37.8145C25.2841 38.092 25.1404 38.4445 25.1404 38.8721V41.9373H24.171ZM31.6782 41.9373L29.5875 36.7226H30.6255L31.9622 40.248L32.1581 40.8405H32.1875L32.398 40.248L33.7396 36.7226H34.7581L32.6526 41.9373H31.6782ZM37.9418 42.0988C37.1061 42.0988 36.4321 41.8377 35.9196 41.3154C35.4071 40.7899 35.1508 40.1305 35.1508 39.3373C35.1508 38.5343 35.4104 37.87 35.9294 37.3445C36.4517 36.8189 37.1225 36.5561 37.9418 36.5561C38.7578 36.5561 39.427 36.8238 39.9493 37.3591C40.4716 37.8912 40.7327 38.5506 40.7327 39.3373C40.7327 40.1207 40.4765 40.7768 39.964 41.3056C39.4515 41.8344 38.7774 42.0988 37.9418 42.0988ZM37.9418 41.2273C38.4641 41.2273 38.8949 41.0543 39.2344 40.7083C39.5739 40.359 39.7436 39.902 39.7436 39.3373C39.7436 38.7824 39.5739 38.327 39.2344 37.9712C38.8949 37.6121 38.4641 37.4326 37.9418 37.4326C37.413 37.4326 36.9805 37.6089 36.6442 37.9614C36.308 38.3139 36.1399 38.7726 36.1399 39.3373C36.1399 39.902 36.308 40.359 36.6442 40.7083C36.9805 41.0543 37.413 41.2273 37.9418 41.2273ZM41.9877 41.9373V36.7226H42.9572V41.9373H41.9877ZM42.4822 35.6895C42.306 35.6895 42.1542 35.6258 42.0269 35.4985C41.8996 35.3712 41.8359 35.2227 41.8359 35.053C41.8359 34.8734 41.8996 34.7249 42.0269 34.6074C42.1542 34.4866 42.306 34.4262 42.4822 34.4262C42.665 34.4262 42.8152 34.4866 42.9327 34.6074C43.0502 34.7249 43.109 34.8734 43.109 35.053C43.109 35.2227 43.0486 35.3712 42.9278 35.4985C42.8103 35.6258 42.6618 35.6895 42.4822 35.6895ZM46.9392 42.1086C46.1133 42.1086 45.4523 41.8442 44.9561 41.3154C44.4632 40.7866 44.2168 40.1223 44.2168 39.3226C44.2168 38.5326 44.4632 37.8733 44.9561 37.3445C45.449 36.8156 46.1149 36.5512 46.9539 36.5512C47.2281 36.5512 47.4778 36.5823 47.703 36.6443C47.9282 36.703 48.1371 36.7912 48.3297 36.9087C48.5223 37.0262 48.7443 37.2106 48.9956 37.462L48.3542 38.0838C48.1747 37.9043 48.0213 37.7721 47.894 37.6872C47.7667 37.5991 47.6247 37.5354 47.468 37.4962C47.3146 37.4538 47.1383 37.4326 46.9392 37.4326C46.4397 37.4326 46.0252 37.6072 45.6955 37.9565C45.3658 38.3058 45.201 38.7611 45.201 39.3226C45.201 39.884 45.3674 40.3427 45.7004 40.6985C46.0333 41.051 46.4446 41.2273 46.9343 41.2273C47.1432 41.2273 47.3309 41.2028 47.4974 41.1538C47.6671 41.1049 47.8189 41.0363 47.9527 40.9482C48.0866 40.8568 48.2465 40.705 48.4326 40.4928L49.1278 41.051C48.8863 41.3481 48.6643 41.5635 48.4619 41.6973C48.2596 41.8312 48.0278 41.9324 47.7667 42.0009C47.5088 42.0727 47.233 42.1086 46.9392 42.1086ZM52.5334 42.0988C51.7239 42.0988 51.0694 41.8442 50.57 41.335C50.0706 40.8258 49.8208 40.1599 49.8208 39.3373C49.8208 38.5604 50.0624 37.9026 50.5455 37.364C51.0286 36.8254 51.6782 36.5561 52.4943 36.5561C53.2483 36.5561 53.8506 36.7863 54.301 37.2465C54.7515 37.7035 54.9767 38.2862 54.9767 38.9945V39.5968H50.3643V38.8427H54.0268V38.8379C54.0072 38.4363 53.8652 38.0969 53.6008 37.8194C53.3364 37.5387 52.9676 37.3983 52.4943 37.3983C52.0014 37.3983 51.595 37.5713 51.2751 37.9173C50.9552 38.2601 50.7952 38.7318 50.7952 39.3324C50.7952 39.9624 50.9617 40.439 51.2946 40.7621C51.6309 41.0853 52.0601 41.2469 52.5824 41.2469C52.8076 41.2469 53.0067 41.2208 53.1798 41.1685C53.356 41.113 53.5192 41.0363 53.6694 40.9384C53.8228 40.8405 53.9958 40.6854 54.1884 40.4732L54.8347 40.9874C54.6225 41.2811 54.4104 41.4998 54.1982 41.6435C53.9893 41.7871 53.7559 41.8981 53.498 41.9764C53.2401 42.058 52.9186 42.0988 52.5334 42.0988Z" fill="#15171A"></path>
<path d="M73.9976 42.3674V41.4959L76.3675 39.1016C76.6972 38.7719 76.9616 38.4667 77.1607 38.1859C77.3598 37.9019 77.4594 37.5984 77.4594 37.2752C77.4594 36.9292 77.3517 36.6485 77.1362 36.433C76.924 36.2176 76.6335 36.1099 76.2647 36.1099C76.0264 36.1099 75.8273 36.1474 75.6673 36.2225C75.5074 36.2976 75.367 36.4085 75.2462 36.5554C75.1287 36.7023 75.0259 36.8704 74.9378 37.0598C74.8529 37.2458 74.8104 37.3389 74.8104 37.3389L73.9291 36.9961C73.9291 36.9961 73.9846 36.8574 74.0956 36.5799C74.2098 36.3025 74.3665 36.0609 74.5656 35.8553C74.768 35.6496 75.0096 35.488 75.2903 35.3705C75.571 35.2497 75.8991 35.1893 76.2745 35.1893C76.9338 35.1893 77.4675 35.3852 77.8756 35.7769C78.2869 36.1686 78.4925 36.6648 78.4925 37.2654C78.4925 37.6636 78.4044 38.0292 78.2281 38.3622C78.0518 38.6919 77.7434 39.0722 77.3027 39.5031L75.3442 41.4175L75.3637 41.4469H78.6639V42.3674H73.9976ZM82.1282 42.5388C81.3448 42.5388 80.7197 42.3054 80.2529 41.8386C79.7894 41.3718 79.5576 40.7663 79.5576 40.0221C79.5576 39.552 79.6768 39.0836 79.9151 38.6168C80.1566 38.1468 80.5287 37.631 81.0314 37.0696L82.7697 35.0718L83.46 35.6937L81.903 37.5396C81.619 37.853 81.3285 38.1043 81.0314 38.2936C80.7377 38.4797 80.4749 39.0624 80.2431 40.0417L79.6898 40.0319C79.8465 39.1832 80.1729 38.5776 80.6691 38.2153C81.1653 37.8497 81.743 37.6669 82.4024 37.6669C83.0422 37.6669 83.5792 37.8921 84.0133 38.3426C84.4507 38.7931 84.6694 39.3611 84.6694 40.0466C84.6694 40.7484 84.4344 41.3392 83.9644 41.819C83.4976 42.2989 82.8855 42.5388 82.1282 42.5388ZM82.1135 41.6526C82.5673 41.6526 82.9378 41.5089 83.225 41.2217C83.5123 40.9344 83.6559 40.5541 83.6559 40.0808C83.6559 39.6206 83.5106 39.2484 83.2201 38.9645C82.9329 38.6772 82.5656 38.5336 82.1184 38.5336C81.6582 38.5336 81.2828 38.6739 80.9923 38.9547C80.705 39.2354 80.5614 39.6091 80.5614 40.0759C80.5614 40.5525 80.7066 40.9344 80.9972 41.2217C81.2909 41.5089 81.6631 41.6526 82.1135 41.6526ZM87.9649 42.5388C87.2173 42.5388 86.6167 42.3413 86.163 41.9463C85.7125 41.5514 85.4873 41.0389 85.4873 40.4089C85.4873 39.9486 85.6179 39.5618 85.879 39.2484C86.1434 38.9351 86.4747 38.7245 86.873 38.6168V38.5874C86.5465 38.4601 86.2789 38.2659 86.07 38.0048C85.8611 37.7436 85.7566 37.4237 85.7566 37.0451C85.7566 36.4967 85.959 36.0511 86.3637 35.7084C86.7685 35.3624 87.3022 35.1893 87.9649 35.1893C88.6308 35.1893 89.1645 35.3624 89.566 35.7084C89.9707 36.0511 90.1731 36.4967 90.1731 37.0451C90.1731 37.4237 90.0654 37.7469 89.85 38.0146C89.6378 38.279 89.3734 38.4699 89.0568 38.5874V38.6168C89.455 38.7245 89.7863 38.9302 90.0507 39.2338C90.3151 39.5341 90.4473 39.9274 90.4473 40.4138C90.4473 41.0405 90.2205 41.5514 89.7667 41.9463C89.313 42.3413 88.7124 42.5388 87.9649 42.5388ZM87.9649 41.6281C88.4219 41.6281 88.7793 41.5106 89.0372 41.2755C89.2983 41.0405 89.4289 40.7369 89.4289 40.3648C89.4289 39.996 89.2999 39.6891 89.0421 39.4443C88.7842 39.1995 88.4251 39.0771 87.9649 39.0771C87.5111 39.0771 87.1537 39.1978 86.8926 39.4394C86.6314 39.6777 86.5008 39.9829 86.5008 40.355C86.5008 40.7239 86.6298 41.0291 86.8877 41.2706C87.1488 41.5089 87.5079 41.6281 87.9649 41.6281ZM87.9649 38.2104C88.3305 38.2104 88.6259 38.1125 88.8511 37.9166C89.0763 37.7175 89.189 37.458 89.189 37.1381C89.189 36.8149 89.0763 36.5587 88.8511 36.3694C88.6259 36.1768 88.3305 36.0805 87.9649 36.0805C87.6025 36.0805 87.3087 36.1768 87.0835 36.3694C86.8583 36.5587 86.7457 36.8149 86.7457 37.1381C86.7457 37.458 86.8583 37.7175 87.0835 37.9166C87.3087 38.1125 87.6025 38.2104 87.9649 38.2104ZM91.4335 43.3124L92.0847 42.3527C91.9672 42.3136 91.8644 42.2385 91.7762 42.1275C91.6881 42.0133 91.644 41.8762 91.644 41.7162C91.644 41.5236 91.7126 41.3588 91.8497 41.2217C91.99 41.0846 92.1614 41.016 92.3638 41.016C92.5629 41.016 92.731 41.0846 92.8681 41.2217C93.0085 41.3588 93.0787 41.5236 93.0787 41.7162C93.0787 41.8174 93.0558 41.9219 93.0101 42.0296C92.9677 42.1373 92.8861 42.2826 92.7653 42.4654L91.9623 43.6748C91.9623 43.6748 91.786 43.554 91.4335 43.3124ZM96.9417 42.5388C96.0637 42.5388 95.3602 42.1993 94.8314 41.5204C94.3059 40.8381 94.0431 39.9503 94.0431 38.8567C94.0431 37.7665 94.3059 36.8819 94.8314 36.2029C95.3602 35.5239 96.0637 35.1845 96.9417 35.1845C97.8198 35.1845 98.5233 35.5239 99.0521 36.2029C99.5809 36.8819 99.8453 37.7665 99.8453 38.8567C99.8453 39.9503 99.5809 40.8381 99.0521 41.5204C98.5233 42.1993 97.8198 42.5388 96.9417 42.5388ZM96.9417 41.6183C97.5652 41.6183 98.032 41.3604 98.3421 40.8447C98.6555 40.3289 98.8122 39.6663 98.8122 38.8567C98.8122 38.0472 98.6555 37.3862 98.3421 36.8737C98.032 36.3612 97.5652 36.105 96.9417 36.105C96.3215 36.105 95.8548 36.3612 95.5414 36.8737C95.2313 37.3862 95.0762 38.0472 95.0762 38.8567C95.0762 39.6663 95.2313 40.3289 95.5414 40.8447C95.8548 41.3604 96.3215 41.6183 96.9417 41.6183ZM103.751 42.5388C102.873 42.5388 102.169 42.1993 101.64 41.5204C101.115 40.8381 100.852 39.9503 100.852 38.8567C100.852 37.7665 101.115 36.8819 101.64 36.2029C102.169 35.5239 102.873 35.1845 103.751 35.1845C104.629 35.1845 105.332 35.5239 105.861 36.2029C106.39 36.8819 106.654 37.7665 106.654 38.8567C106.654 39.9503 106.39 40.8381 105.861 41.5204C105.332 42.1993 104.629 42.5388 103.751 42.5388ZM103.751 41.6183C104.374 41.6183 104.841 41.3604 105.151 40.8447C105.464 40.3289 105.621 39.6663 105.621 38.8567C105.621 38.0472 105.464 37.3862 105.151 36.8737C104.841 36.3612 104.374 36.105 103.751 36.105C103.131 36.105 102.664 36.3612 102.35 36.8737C102.04 37.3862 101.885 38.0472 101.885 38.8567C101.885 39.6663 102.04 40.3289 102.35 40.8447C102.664 41.3604 103.131 41.6183 103.751 41.6183ZM110.56 42.5388C109.682 42.5388 108.978 42.1993 108.449 41.5204C107.924 40.8381 107.661 39.9503 107.661 38.8567C107.661 37.7665 107.924 36.8819 108.449 36.2029C108.978 35.5239 109.682 35.1845 110.56 35.1845C111.438 35.1845 112.141 35.5239 112.67 36.2029C113.199 36.8819 113.463 37.7665 113.463 38.8567C113.463 39.9503 113.199 40.8381 112.67 41.5204C112.141 42.1993 111.438 42.5388 110.56 42.5388ZM110.56 41.6183C111.183 41.6183 111.65 41.3604 111.96 40.8447C112.274 40.3289 112.43 39.6663 112.43 38.8567C112.43 38.0472 112.274 37.3862 111.96 36.8737C111.65 36.3612 111.183 36.105 110.56 36.105C109.94 36.105 109.473 36.3612 109.159 36.8737C108.849 37.3862 108.694 38.0472 108.694 38.8567C108.694 39.6663 108.849 40.3289 109.159 40.8447C109.473 41.3604 109.94 41.6183 110.56 41.6183ZM119.544 42.529C118.807 42.529 118.198 42.276 117.718 41.7701C117.238 41.2609 116.998 40.6194 116.998 39.8458C116.998 39.0493 117.235 38.403 117.708 37.9068C118.185 37.4107 118.769 37.1626 119.461 37.1626C119.902 37.1626 120.287 37.2605 120.617 37.4564C120.946 37.649 121.189 37.8775 121.346 38.1419H121.375V35.1355H122.34V42.3674H121.4V41.6281H121.371C121.188 41.886 120.941 42.1014 120.631 42.2744C120.324 42.4441 119.962 42.529 119.544 42.529ZM119.711 41.7211C120.204 41.7211 120.612 41.5481 120.935 41.2021C121.258 40.8561 121.42 40.4089 121.42 39.8605C121.42 39.3154 121.251 38.8665 120.915 38.514C120.582 38.1582 120.181 37.9803 119.711 37.9803C119.205 37.9803 118.79 38.1582 118.467 38.514C118.144 38.8665 117.982 39.3105 117.982 39.8458C117.982 40.3844 118.142 40.8316 118.462 41.1874C118.782 41.5432 119.198 41.7211 119.711 41.7211ZM120.073 36.6534V35.9532H123.177V36.6534H120.073Z" fill="#15171A"></path>
<rect x="11.4675" y="57.4485" width="5.59585" height="5.59585" rx="2.79793" fill="#0070F4"></rect>
<path d="M21.5893 63.2463V58.0317H22.5588V63.2463H21.5893ZM22.0839 56.9986C21.9076 56.9986 21.7558 56.9349 21.6285 56.8076C21.5012 56.6803 21.4376 56.5318 21.4376 56.362C21.4376 56.1825 21.5012 56.034 21.6285 55.9165C21.7558 55.7957 21.9076 55.7353 22.0839 55.7353C22.2667 55.7353 22.4168 55.7957 22.5343 55.9165C22.6519 56.034 22.7106 56.1825 22.7106 56.362C22.7106 56.5318 22.6502 56.6803 22.5295 56.8076C22.4119 56.9349 22.2634 56.9986 22.0839 56.9986ZM24.171 63.2463V58.0317H25.1013V58.9424L24.9691 58.7613H25.1306C25.2971 58.5001 25.5387 58.2863 25.8553 58.1198C26.1719 57.9501 26.5326 57.8652 26.9374 57.8652C27.5576 57.8652 28.0326 58.0301 28.3623 58.3598C28.6952 58.6862 28.8617 59.1399 28.8617 59.7209V63.2463H27.8922V59.9315C27.8922 59.5398 27.7959 59.2378 27.6033 59.0257C27.4107 58.8102 27.0957 58.7025 26.6583 58.7025C26.2209 58.7025 25.8586 58.8429 25.5713 59.1236C25.2841 59.4011 25.1404 59.7536 25.1404 60.1812V63.2463H24.171ZM31.6782 63.2463L29.5875 58.0317H30.6255L31.9622 61.5571L32.1581 62.1496H32.1875L32.398 61.5571L33.7396 58.0317H34.7581L32.6526 63.2463H31.6782ZM37.9418 63.4079C37.1061 63.4079 36.4321 63.1468 35.9196 62.6245C35.4071 62.099 35.1508 61.4396 35.1508 60.6464C35.1508 59.8434 35.4104 59.1791 35.9294 58.6535C36.4517 58.128 37.1225 57.8652 37.9418 57.8652C38.7578 57.8652 39.427 58.1329 39.9493 58.6682C40.4716 59.2003 40.7327 59.8597 40.7327 60.6464C40.7327 61.4298 40.4765 62.0859 39.964 62.6147C39.4515 63.1435 38.7774 63.4079 37.9418 63.4079ZM37.9418 62.5364C38.4641 62.5364 38.8949 62.3634 39.2344 62.0173C39.5739 61.6681 39.7436 61.2111 39.7436 60.6464C39.7436 60.0914 39.5739 59.6361 39.2344 59.2803C38.8949 58.9212 38.4641 58.7417 37.9418 58.7417C37.413 58.7417 36.9805 58.9179 36.6442 59.2705C36.308 59.623 36.1399 60.0816 36.1399 60.6464C36.1399 61.2111 36.308 61.6681 36.6442 62.0173C36.9805 62.3634 37.413 62.5364 37.9418 62.5364ZM41.9877 63.2463V58.0317H42.9572V63.2463H41.9877ZM42.4822 56.9986C42.306 56.9986 42.1542 56.9349 42.0269 56.8076C41.8996 56.6803 41.8359 56.5318 41.8359 56.362C41.8359 56.1825 41.8996 56.034 42.0269 55.9165C42.1542 55.7957 42.306 55.7353 42.4822 55.7353C42.665 55.7353 42.8152 55.7957 42.9327 55.9165C43.0502 56.034 43.109 56.1825 43.109 56.362C43.109 56.5318 43.0486 56.6803 42.9278 56.8076C42.8103 56.9349 42.6618 56.9986 42.4822 56.9986ZM46.9392 63.4177C46.1133 63.4177 45.4523 63.1533 44.9561 62.6245C44.4632 62.0957 44.2168 61.4314 44.2168 60.6317C44.2168 59.8417 44.4632 59.1823 44.9561 58.6535C45.449 58.1247 46.1149 57.8603 46.9539 57.8603C47.2281 57.8603 47.4778 57.8913 47.703 57.9534C47.9282 58.0121 48.1371 58.1002 48.3297 58.2178C48.5223 58.3353 48.7443 58.5197 48.9956 58.7711L48.3542 59.3929C48.1747 59.2134 48.0213 59.0812 47.894 58.9963C47.7667 58.9082 47.6247 58.8445 47.468 58.8053C47.3146 58.7629 47.1383 58.7417 46.9392 58.7417C46.4397 58.7417 46.0252 58.9163 45.6955 59.2656C45.3658 59.6149 45.201 60.0702 45.201 60.6317C45.201 61.1931 45.3674 61.6518 45.7004 62.0076C46.0333 62.3601 46.4446 62.5364 46.9343 62.5364C47.1432 62.5364 47.3309 62.5119 47.4974 62.4629C47.6671 62.414 47.8189 62.3454 47.9527 62.2573C48.0866 62.1659 48.2465 62.0141 48.4326 61.8019L49.1278 62.3601C48.8863 62.6571 48.6643 62.8726 48.4619 63.0064C48.2596 63.1402 48.0278 63.2414 47.7667 63.31C47.5088 63.3818 47.233 63.4177 46.9392 63.4177ZM52.5334 63.4079C51.7239 63.4079 51.0694 63.1533 50.57 62.6441C50.0706 62.1349 49.8208 61.469 49.8208 60.6464C49.8208 59.8695 50.0624 59.2117 50.5455 58.6731C51.0286 58.1345 51.6782 57.8652 52.4943 57.8652C53.2483 57.8652 53.8506 58.0954 54.301 58.5556C54.7515 59.0126 54.9767 59.5953 54.9767 60.3036V60.9059H50.3643V60.1518H54.0268V60.1469C54.0072 59.7454 53.8652 59.4059 53.6008 59.1285C53.3364 58.8478 52.9676 58.7074 52.4943 58.7074C52.0014 58.7074 51.595 58.8804 51.2751 59.2264C50.9552 59.5692 50.7952 60.0408 50.7952 60.6415C50.7952 61.2715 50.9617 61.748 51.2946 62.0712C51.6309 62.3944 52.0601 62.5559 52.5824 62.5559C52.8076 62.5559 53.0067 62.5298 53.1798 62.4776C53.356 62.4221 53.5192 62.3454 53.6694 62.2475C53.8228 62.1496 53.9958 61.9945 54.1884 61.7823L54.8347 62.2964C54.6225 62.5902 54.4104 62.8089 54.1982 62.9526C53.9893 63.0962 53.7559 63.2072 53.498 63.2855C53.2401 63.3671 52.9186 63.4079 52.5334 63.4079Z" fill="#15171A"></path>
<path d="M67.633 63.6765V58.031L66.1592 59.1229L65.6353 58.3786L67.966 56.6649H68.6221V63.6765H67.633ZM70.1119 64.6215L70.7631 63.6618C70.6456 63.6227 70.5428 63.5476 70.4546 63.4366C70.3665 63.3223 70.3224 63.1852 70.3224 63.0253C70.3224 62.8327 70.391 62.6679 70.5281 62.5308C70.6685 62.3937 70.8398 62.3251 71.0422 62.3251C71.2413 62.3251 71.4094 62.3937 71.5465 62.5308C71.6869 62.6679 71.7571 62.8327 71.7571 63.0253C71.7571 63.1265 71.7342 63.2309 71.6885 63.3387C71.6461 63.4464 71.5645 63.5916 71.4437 63.7744L70.6407 64.9838C70.6407 64.9838 70.4644 64.8631 70.1119 64.6215ZM75.236 63.8479C74.7921 63.8479 74.4183 63.7859 74.1148 63.6618C73.8112 63.5345 73.55 63.3517 73.3313 63.1134C73.1159 62.8719 72.9592 62.6156 72.8613 62.3447C72.7634 62.0738 72.7144 61.9383 72.7144 61.9383L73.6153 61.6396C73.6153 61.6396 73.6529 61.7392 73.728 61.9383C73.8063 62.1374 73.914 62.3137 74.0511 62.4671C74.1882 62.6173 74.3514 62.7315 74.5407 62.8099C74.7301 62.8882 74.9618 62.9274 75.236 62.9274C75.6669 62.9274 76.0227 62.8115 76.3034 62.5797C76.5842 62.348 76.7245 62.0493 76.7245 61.6837C76.7245 61.2952 76.5989 60.9982 76.3475 60.7925C76.0962 60.5836 75.7257 60.4792 75.236 60.4792H74.6876V59.5734H75.1822C75.5771 59.5734 75.884 59.4787 76.1027 59.2894C76.3247 59.1 76.4356 58.8193 76.4356 58.4472C76.4356 58.1338 76.3247 57.8825 76.1027 57.6931C75.884 57.5006 75.5886 57.4043 75.2164 57.4043C74.9945 57.4043 74.8052 57.4369 74.6485 57.5022C74.4918 57.5642 74.3547 57.6572 74.2372 57.7813C74.1229 57.9021 74.0283 58.0424 73.9532 58.2024C73.8781 58.3623 73.8406 58.4423 73.8406 58.4423L72.9494 58.124C72.9494 58.124 73.0017 58.0049 73.1061 57.7666C73.2106 57.525 73.3624 57.3063 73.5615 57.1105C73.7639 56.9114 74.0005 56.7596 74.2714 56.6551C74.5456 56.5474 74.8721 56.4935 75.2507 56.4935C75.9721 56.4935 76.5173 56.6763 76.8861 57.0419C77.2582 57.4075 77.4443 57.8613 77.4443 58.4031C77.4443 58.8112 77.3382 59.1425 77.126 59.3971C76.9171 59.6517 76.6168 59.8345 76.2251 59.9455V59.9798C76.7049 60.0809 77.0771 60.2735 77.3415 60.5575C77.6091 60.8382 77.743 61.2251 77.743 61.718C77.743 62.3088 77.5194 62.8115 77.0722 63.226C76.625 63.6406 76.0129 63.8479 75.236 63.8479ZM78.6594 63.6765V62.805L81.0292 60.4106C81.3589 60.0809 81.6233 59.7757 81.8224 59.495C82.0215 59.211 82.1211 58.9074 82.1211 58.5843C82.1211 58.2383 82.0134 57.9576 81.7979 57.7421C81.5858 57.5267 81.2952 57.4189 80.9264 57.4189C80.6881 57.4189 80.489 57.4565 80.329 57.5316C80.1691 57.6066 80.0287 57.7176 79.9079 57.8645C79.7904 58.0114 79.6876 58.1795 79.5995 58.3688C79.5146 58.5549 79.4722 58.6479 79.4722 58.6479L78.5908 58.3052C78.5908 58.3052 78.6463 58.1665 78.7573 57.889C78.8715 57.6115 79.0282 57.37 79.2273 57.1643C79.4297 56.9587 79.6713 56.7971 79.952 56.6796C80.2327 56.5588 80.5608 56.4984 80.9362 56.4984C81.5956 56.4984 82.1293 56.6943 82.5373 57.086C82.9486 57.4777 83.1542 57.9739 83.1542 58.5745C83.1542 58.9727 83.0661 59.3383 82.8898 59.6713C82.7136 60.001 82.4051 60.3813 81.9644 60.8121L80.0059 62.7266L80.0255 62.756H83.3256V63.6765H78.6594ZM87.2012 63.8479C86.3232 63.8479 85.6197 63.5084 85.0909 62.8294C84.5654 62.1472 84.3026 61.2593 84.3026 60.1658C84.3026 59.0756 84.5654 58.1909 85.0909 57.512C85.6197 56.833 86.3232 56.4935 87.2012 56.4935C88.0793 56.4935 88.7828 56.833 89.3116 57.512C89.8404 58.1909 90.1048 59.0756 90.1048 60.1658C90.1048 61.2593 89.8404 62.1472 89.3116 62.8294C88.7828 63.5084 88.0793 63.8479 87.2012 63.8479ZM87.2012 62.9274C87.8247 62.9274 88.2915 62.6695 88.6016 62.1537C88.915 61.638 89.0717 60.9753 89.0717 60.1658C89.0717 59.3563 88.915 58.6953 88.6016 58.1828C88.2915 57.6703 87.8247 57.4141 87.2012 57.4141C86.581 57.4141 86.1142 57.6703 85.8009 58.1828C85.4908 58.6953 85.3357 59.3563 85.3357 60.1658C85.3357 60.9753 85.4908 61.638 85.8009 62.1537C86.1142 62.6695 86.581 62.9274 87.2012 62.9274ZM90.9406 64.6215L91.5918 63.6618C91.4743 63.6227 91.3715 63.5476 91.2834 63.4366C91.1952 63.3223 91.1512 63.1852 91.1512 63.0253C91.1512 62.8327 91.2197 62.6679 91.3568 62.5308C91.4972 62.3937 91.6685 62.3251 91.8709 62.3251C92.07 62.3251 92.2382 62.3937 92.3753 62.5308C92.5156 62.6679 92.5858 62.8327 92.5858 63.0253C92.5858 63.1265 92.5629 63.2309 92.5172 63.3387C92.4748 63.4464 92.3932 63.5916 92.2724 63.7744L91.4694 64.9838C91.4694 64.9838 91.2932 64.8631 90.9406 64.6215ZM96.4489 63.8479C95.5708 63.8479 94.8674 63.5084 94.3385 62.8294C93.813 62.1472 93.5502 61.2593 93.5502 60.1658C93.5502 59.0756 93.813 58.1909 94.3385 57.512C94.8674 56.833 95.5708 56.4935 96.4489 56.4935C97.327 56.4935 98.0304 56.833 98.5592 57.512C99.088 58.1909 99.3524 59.0756 99.3524 60.1658C99.3524 61.2593 99.088 62.1472 98.5592 62.8294C98.0304 63.5084 97.327 63.8479 96.4489 63.8479ZM96.4489 62.9274C97.0724 62.9274 97.5391 62.6695 97.8492 62.1537C98.1626 61.638 98.3193 60.9753 98.3193 60.1658C98.3193 59.3563 98.1626 58.6953 97.8492 58.1828C97.5391 57.6703 97.0724 57.4141 96.4489 57.4141C95.8287 57.4141 95.3619 57.6703 95.0485 58.1828C94.7384 58.6953 94.5834 59.3563 94.5834 60.1658C94.5834 60.9753 94.7384 61.638 95.0485 62.1537C95.3619 62.6695 95.8287 62.9274 96.4489 62.9274ZM103.258 63.8479C102.38 63.8479 101.676 63.5084 101.148 62.8294C100.622 62.1472 100.359 61.2593 100.359 60.1658C100.359 59.0756 100.622 58.1909 101.148 57.512C101.676 56.833 102.38 56.4935 103.258 56.4935C104.136 56.4935 104.839 56.833 105.368 57.512C105.897 58.1909 106.161 59.0756 106.161 60.1658C106.161 61.2593 105.897 62.1472 105.368 62.8294C104.839 63.5084 104.136 63.8479 103.258 63.8479ZM103.258 62.9274C103.881 62.9274 104.348 62.6695 104.658 62.1537C104.972 61.638 105.128 60.9753 105.128 60.1658C105.128 59.3563 104.972 58.6953 104.658 58.1828C104.348 57.6703 103.881 57.4141 103.258 57.4141C102.638 57.4141 102.171 57.6703 101.858 58.1828C101.547 58.6953 101.392 59.3563 101.392 60.1658C101.392 60.9753 101.547 61.638 101.858 62.1537C102.171 62.6695 102.638 62.9274 103.258 62.9274ZM110.067 63.8479C109.189 63.8479 108.485 63.5084 107.957 62.8294C107.431 62.1472 107.168 61.2593 107.168 60.1658C107.168 59.0756 107.431 58.1909 107.957 57.512C108.485 56.833 109.189 56.4935 110.067 56.4935C110.945 56.4935 111.648 56.833 112.177 57.512C112.706 58.1909 112.97 59.0756 112.97 60.1658C112.97 61.2593 112.706 62.1472 112.177 62.8294C111.648 63.5084 110.945 63.8479 110.067 63.8479ZM110.067 62.9274C110.69 62.9274 111.157 62.6695 111.467 62.1537C111.781 61.638 111.937 60.9753 111.937 60.1658C111.937 59.3563 111.781 58.6953 111.467 58.1828C111.157 57.6703 110.69 57.4141 110.067 57.4141C109.447 57.4141 108.98 57.6703 108.667 58.1828C108.356 58.6953 108.201 59.3563 108.201 60.1658C108.201 60.9753 108.356 61.638 108.667 62.1537C108.98 62.6695 109.447 62.9274 110.067 62.9274ZM119.051 63.8381C118.314 63.8381 117.705 63.5851 117.225 63.0792C116.745 62.5699 116.505 61.9285 116.505 61.1549C116.505 60.3584 116.742 59.7121 117.215 59.2159C117.692 58.7198 118.276 58.4717 118.968 58.4717C119.409 58.4717 119.794 58.5696 120.124 58.7655C120.453 58.958 120.697 59.1865 120.853 59.4509H120.883V56.4446H121.847V63.6765H120.907V62.9372H120.878C120.695 63.195 120.448 63.4105 120.138 63.5835C119.832 63.7532 119.469 63.8381 119.051 63.8381ZM119.218 63.0302C119.711 63.0302 120.119 62.8572 120.442 62.5112C120.765 62.1652 120.927 61.718 120.927 61.1696C120.927 60.6244 120.759 60.1756 120.422 59.8231C120.089 59.4673 119.688 59.2894 119.218 59.2894C118.712 59.2894 118.297 59.4673 117.974 59.8231C117.651 60.1756 117.489 60.6195 117.489 61.1549C117.489 61.6935 117.649 62.1407 117.969 62.4965C118.289 62.8523 118.705 63.0302 119.218 63.0302ZM119.58 57.9624V57.2623H122.684V57.9624H119.58Z" fill="#15171A"></path>
<rect x="11.4675" y="78.7576" width="5.59585" height="5.59585" rx="2.79793" fill="#0070F4"></rect>
<path d="M21.5893 84.5554V79.3408H22.5588V84.5554H21.5893ZM22.0839 78.3076C21.9076 78.3076 21.7558 78.244 21.6285 78.1167C21.5012 77.9894 21.4376 77.8409 21.4376 77.6711C21.4376 77.4916 21.5012 77.3431 21.6285 77.2255C21.7558 77.1048 21.9076 77.0444 22.0839 77.0444C22.2667 77.0444 22.4168 77.1048 22.5343 77.2255C22.6519 77.3431 22.7106 77.4916 22.7106 77.6711C22.7106 77.8409 22.6502 77.9894 22.5295 78.1167C22.4119 78.244 22.2634 78.3076 22.0839 78.3076ZM24.171 84.5554V79.3408H25.1013V80.2515L24.9691 80.0703H25.1306C25.2971 79.8092 25.5387 79.5954 25.8553 79.4289C26.1719 79.2592 26.5326 79.1743 26.9374 79.1743C27.5576 79.1743 28.0326 79.3392 28.3623 79.6688C28.6952 79.9953 28.8617 80.449 28.8617 81.03V84.5554H27.8922V81.2406C27.8922 80.8489 27.7959 80.5469 27.6033 80.3347C27.4107 80.1193 27.0957 80.0116 26.6583 80.0116C26.2209 80.0116 25.8586 80.1519 25.5713 80.4327C25.2841 80.7101 25.1404 81.0627 25.1404 81.4903V84.5554H24.171ZM31.6782 84.5554L29.5875 79.3408H30.6255L31.9622 82.8662L32.1581 83.4586H32.1875L32.398 82.8662L33.7396 79.3408H34.7581L32.6526 84.5554H31.6782ZM37.9418 84.717C37.1061 84.717 36.4321 84.4559 35.9196 83.9336C35.4071 83.408 35.1508 82.7487 35.1508 81.9554C35.1508 81.1524 35.4104 80.4882 35.9294 79.9626C36.4517 79.4371 37.1225 79.1743 37.9418 79.1743C38.7578 79.1743 39.427 79.442 39.9493 79.9773C40.4716 80.5094 40.7327 81.1688 40.7327 81.9554C40.7327 82.7389 40.4765 83.395 39.964 83.9238C39.4515 84.4526 38.7774 84.717 37.9418 84.717ZM37.9418 83.8454C38.4641 83.8454 38.8949 83.6724 39.2344 83.3264C39.5739 82.9772 39.7436 82.5202 39.7436 81.9554C39.7436 81.4005 39.5739 80.9452 39.2344 80.5894C38.8949 80.2303 38.4641 80.0508 37.9418 80.0508C37.413 80.0508 36.9805 80.227 36.6442 80.5796C36.308 80.9321 36.1399 81.3907 36.1399 81.9554C36.1399 82.5202 36.308 82.9772 36.6442 83.3264C36.9805 83.6724 37.413 83.8454 37.9418 83.8454ZM41.9877 84.5554V79.3408H42.9572V84.5554H41.9877ZM42.4822 78.3076C42.306 78.3076 42.1542 78.244 42.0269 78.1167C41.8996 77.9894 41.8359 77.8409 41.8359 77.6711C41.8359 77.4916 41.8996 77.3431 42.0269 77.2255C42.1542 77.1048 42.306 77.0444 42.4822 77.0444C42.665 77.0444 42.8152 77.1048 42.9327 77.2255C43.0502 77.3431 43.109 77.4916 43.109 77.6711C43.109 77.8409 43.0486 77.9894 42.9278 78.1167C42.8103 78.244 42.6618 78.3076 42.4822 78.3076ZM46.9392 84.7268C46.1133 84.7268 45.4523 84.4624 44.9561 83.9336C44.4632 83.4048 44.2168 82.7405 44.2168 81.9408C44.2168 81.1508 44.4632 80.4914 44.9561 79.9626C45.449 79.4338 46.1149 79.1694 46.9539 79.1694C47.2281 79.1694 47.4778 79.2004 47.703 79.2624C47.9282 79.3212 48.1371 79.4093 48.3297 79.5268C48.5223 79.6444 48.7443 79.8288 48.9956 80.0801L48.3542 80.702C48.1747 80.5224 48.0213 80.3902 47.894 80.3054C47.7667 80.2172 47.6247 80.1536 47.468 80.1144C47.3146 80.072 47.1383 80.0508 46.9392 80.0508C46.4397 80.0508 46.0252 80.2254 45.6955 80.5747C45.3658 80.9239 45.201 81.3793 45.201 81.9408C45.201 82.5022 45.3674 82.9608 45.7004 83.3166C46.0333 83.6692 46.4446 83.8454 46.9343 83.8454C47.1432 83.8454 47.3309 83.821 47.4974 83.772C47.6671 83.723 47.8189 83.6545 47.9527 83.5664C48.0866 83.475 48.2465 83.3232 48.4326 83.111L49.1278 83.6692C48.8863 83.9662 48.6643 84.1817 48.4619 84.3155C48.2596 84.4493 48.0278 84.5505 47.7667 84.6191C47.5088 84.6909 47.233 84.7268 46.9392 84.7268ZM52.5334 84.717C51.7239 84.717 51.0694 84.4624 50.57 83.9532C50.0706 83.4439 49.8208 82.778 49.8208 81.9554C49.8208 81.1786 50.0624 80.5208 50.5455 79.9822C51.0286 79.4436 51.6782 79.1743 52.4943 79.1743C53.2483 79.1743 53.8506 79.4044 54.301 79.8647C54.7515 80.3217 54.9767 80.9044 54.9767 81.6127V82.215H50.3643V81.4609H54.0268V81.456C54.0072 81.0545 53.8652 80.715 53.6008 80.4376C53.3364 80.1568 52.9676 80.0165 52.4943 80.0165C52.0014 80.0165 51.595 80.1895 51.2751 80.5355C50.9552 80.8782 50.7952 81.3499 50.7952 81.9505C50.7952 82.5805 50.9617 83.0571 51.2946 83.3803C51.6309 83.7035 52.0601 83.865 52.5824 83.865C52.8076 83.865 53.0067 83.8389 53.1798 83.7867C53.356 83.7312 53.5192 83.6545 53.6694 83.5566C53.8228 83.4586 53.9958 83.3036 54.1884 83.0914L54.8347 83.6055C54.6225 83.8993 54.4104 84.118 54.1982 84.2616C53.9893 84.4053 53.7559 84.5162 53.498 84.5946C53.2401 84.6762 52.9186 84.717 52.5334 84.717Z" fill="#15171A"></path>
<path d="M78.1656 84.9856V82.9389L78.2048 82.7724V78.8358L78.5867 79.247H78.1754L75.7664 82.4689H78.5426L78.7679 82.4395H80.1633V83.3257H74.7724V82.4689L78.1117 77.974H79.1253V84.9856H78.1656ZM80.9627 84.7065L84.0572 78.9239L84.0376 78.8945H80.4387V77.974H85.2323C85.2323 78.5061 85.2323 78.7721 85.2323 78.7721C85.2323 78.7721 85.2176 78.8015 85.1882 78.8602L81.8636 85.157L80.9627 84.7065ZM88.1824 85.157C87.7743 85.157 87.4087 85.0868 87.0856 84.9464C86.7624 84.8061 86.4947 84.6151 86.2826 84.3735C86.0704 84.1287 85.9202 83.8806 85.8321 83.6293C85.7472 83.378 85.7048 83.2523 85.7048 83.2523L86.6008 82.9585C86.6008 82.9585 86.6416 83.0548 86.7232 83.2474C86.8081 83.44 86.9158 83.613 87.0464 83.7664C87.177 83.9198 87.3337 84.0373 87.5164 84.1189C87.7025 84.1973 87.918 84.2365 88.1628 84.2365C88.6067 84.2365 88.9641 84.101 89.2351 83.8301C89.5093 83.5591 89.6464 83.1984 89.6464 82.748C89.6464 82.304 89.5093 81.9498 89.2351 81.6854C88.9609 81.4178 88.6181 81.2839 88.2068 81.2839C87.9718 81.2839 87.7547 81.3313 87.5556 81.4259C87.3565 81.5206 87.1443 81.7018 86.9191 81.9694L85.9692 81.5826L86.4246 77.974H90.229V78.8945H87.1933L86.9338 80.8971L86.9632 80.9069C87.1558 80.7437 87.3696 80.6148 87.6046 80.5201C87.8429 80.4254 88.1154 80.3781 88.4223 80.3781C89.0327 80.3781 89.5533 80.6017 89.9842 81.0489C90.4184 81.4928 90.6354 82.0608 90.6354 82.7528C90.6354 83.4612 90.4037 84.039 89.9402 84.4862C89.4766 84.9334 88.8907 85.157 88.1824 85.157ZM91.5154 85.9306L92.1666 84.9709C92.0491 84.9317 91.9463 84.8567 91.8582 84.7457C91.77 84.6314 91.726 84.4943 91.726 84.3344C91.726 84.1418 91.7945 83.9769 91.9316 83.8398C92.072 83.7027 92.2433 83.6342 92.4457 83.6342C92.6448 83.6342 92.8129 83.7027 92.95 83.8398C93.0904 83.9769 93.1606 84.1418 93.1606 84.3344C93.1606 84.4356 93.1377 84.54 93.092 84.6477C93.0496 84.7555 92.968 84.9007 92.8472 85.0835L92.0442 86.2929C92.0442 86.2929 91.8679 86.1722 91.5154 85.9306ZM97.0237 85.157C96.1456 85.157 95.4421 84.8175 94.9133 84.1385C94.3878 83.4563 94.125 82.5684 94.125 81.4749C94.125 80.3846 94.3878 79.5 94.9133 78.8211C95.4421 78.1421 96.1456 77.8026 97.0237 77.8026C97.9018 77.8026 98.6052 78.1421 99.134 78.8211C99.6628 79.5 99.9272 80.3846 99.9272 81.4749C99.9272 82.5684 99.6628 83.4563 99.134 84.1385C98.6052 84.8175 97.9018 85.157 97.0237 85.157ZM97.0237 84.2365C97.6471 84.2365 98.1139 83.9786 98.424 83.4628C98.7374 82.9471 98.8941 82.2844 98.8941 81.4749C98.8941 80.6654 98.7374 80.0044 98.424 79.4919C98.1139 78.9794 97.6471 78.7231 97.0237 78.7231C96.4035 78.7231 95.9367 78.9794 95.6233 79.4919C95.3132 80.0044 95.1582 80.6654 95.1582 81.4749C95.1582 82.2844 95.3132 82.9471 95.6233 83.4628C95.9367 83.9786 96.4035 84.2365 97.0237 84.2365ZM103.833 85.157C102.955 85.157 102.251 84.8175 101.722 84.1385C101.197 83.4563 100.934 82.5684 100.934 81.4749C100.934 80.3846 101.197 79.5 101.722 78.8211C102.251 78.1421 102.955 77.8026 103.833 77.8026C104.711 77.8026 105.414 78.1421 105.943 78.8211C106.472 79.5 106.736 80.3846 106.736 81.4749C106.736 82.5684 106.472 83.4563 105.943 84.1385C105.414 84.8175 104.711 85.157 103.833 85.157ZM103.833 84.2365C104.456 84.2365 104.923 83.9786 105.233 83.4628C105.546 82.9471 105.703 82.2844 105.703 81.4749C105.703 80.6654 105.546 80.0044 105.233 79.4919C104.923 78.9794 104.456 78.7231 103.833 78.7231C103.212 78.7231 102.746 78.9794 102.432 79.4919C102.122 80.0044 101.967 80.6654 101.967 81.4749C101.967 82.2844 102.122 82.9471 102.432 83.4628C102.746 83.9786 103.212 84.2365 103.833 84.2365ZM110.642 85.157C109.764 85.157 109.06 84.8175 108.531 84.1385C108.006 83.4563 107.743 82.5684 107.743 81.4749C107.743 80.3846 108.006 79.5 108.531 78.8211C109.06 78.1421 109.764 77.8026 110.642 77.8026C111.52 77.8026 112.223 78.1421 112.752 78.8211C113.281 79.5 113.545 80.3846 113.545 81.4749C113.545 82.5684 113.281 83.4563 112.752 84.1385C112.223 84.8175 111.52 85.157 110.642 85.157ZM110.642 84.2365C111.265 84.2365 111.732 83.9786 112.042 83.4628C112.355 82.9471 112.512 82.2844 112.512 81.4749C112.512 80.6654 112.355 80.0044 112.042 79.4919C111.732 78.9794 111.265 78.7231 110.642 78.7231C110.022 78.7231 109.555 78.9794 109.241 79.4919C108.931 80.0044 108.776 80.6654 108.776 81.4749C108.776 82.2844 108.931 82.9471 109.241 83.4628C109.555 83.9786 110.022 84.2365 110.642 84.2365ZM119.626 85.1472C118.888 85.1472 118.28 84.8942 117.8 84.3882C117.32 83.879 117.08 83.2376 117.08 82.464C117.08 81.6675 117.317 81.0212 117.79 80.525C118.267 80.0288 118.851 79.7808 119.543 79.7808C119.984 79.7808 120.369 79.8787 120.698 80.0745C121.028 80.2671 121.271 80.4956 121.428 80.76H121.457V77.7537H122.422V84.9856H121.482V84.2462H121.453C121.27 84.5041 121.023 84.7196 120.713 84.8926C120.406 85.0623 120.044 85.1472 119.626 85.1472ZM119.793 84.3393C120.286 84.3393 120.694 84.1663 121.017 83.8203C121.34 83.4742 121.501 83.027 121.501 82.4787C121.501 81.9335 121.333 81.4847 120.997 81.1322C120.664 80.7763 120.263 80.5984 119.793 80.5984C119.287 80.5984 118.872 80.7763 118.549 81.1322C118.226 81.4847 118.064 81.9286 118.064 82.464C118.064 83.0026 118.224 83.4498 118.544 83.8056C118.864 84.1614 119.28 84.3393 119.793 84.3393ZM120.155 79.2715V78.5713H123.259V79.2715H120.155Z" fill="#15171A"></path>
<g clip-path="url(#clip1_2336_9709)">
<rect x="11.4675" y="101.034" width="27.2534" height="27.2534" rx="4" fill="#002957" fill-opacity="0.15"></rect>
<rect x="1.99876" y="101.034" width="44.525" height="27.8281" fill="url(#pattern0_2336_9709)"></rect>
</g>
<g clip-path="url(#clip2_2336_9709)">
<rect x="42.7209" y="101.034" width="27.2534" height="27.2534" rx="4" fill="#002957" fill-opacity="0.15"></rect>
<rect x="42.7209" y="101.034" width="26.8281" height="26.8281" fill="url(#pattern1_2336_9709)"></rect>
</g>
<g clip-path="url(#clip3_2336_9709)">
<rect x="73.9743" y="101.034" width="27.2534" height="27.2534" rx="4" fill="#002957" fill-opacity="0.15"></rect>
<rect x="73.9743" y="101.034" width="27.8281" height="27.8281" fill="url(#pattern2_2336_9709)"></rect>
</g>
</g>
<defs>
<clipPath id="bgblur_0_2336_9709_clip_path" transform="translate(3 3)"><path d="M0 10C0 4.47715 4.47715 0 10 0H125C130.523 0 135 4.47715 135 10V129C135 134.523 130.523 139 125 139H10C4.47715 139 0 134.523 0 129V10Z"></path>
</clipPath><pattern id="pattern0_2336_9709" patternContentUnits="objectBoundingBox" width="1" height="1">
<use xlink:href="#image0_2336_9709" transform="scale(0.0015625 0.0025)"></use>
</pattern>
<pattern id="pattern1_2336_9709" patternContentUnits="objectBoundingBox" width="1" height="1">
<use xlink:href="#image1_2336_9709" transform="scale(0.00347222)"></use>
</pattern>
<pattern id="pattern2_2336_9709" patternContentUnits="objectBoundingBox" width="1" height="1">
<use xlink:href="#image2_2336_9709" transform="scale(0.000833333)"></use>
</pattern>
<radialGradient id="paint0_radial_2336_9709" cx="0" cy="0" r="1" gradientTransform="matrix(-83.5 -78.2718 76.0194 -147.693 135 139)" gradientUnits="userSpaceOnUse">
<stop stop-color="white"></stop>
<stop offset="1" stop-color="white"></stop>
</radialGradient>
<clipPath id="clip1_2336_9709">
<rect x="11.4675" y="101.034" width="27.2534" height="27.2534" rx="4" fill="white"></rect>
</clipPath>
<clipPath id="clip2_2336_9709">
<rect x="42.7209" y="101.034" width="27.2534" height="27.2534" rx="4" fill="white"></rect>
</clipPath>
<clipPath id="clip3_2336_9709">
<rect x="73.9743" y="101.034" width="27.2534" height="27.2534" rx="4" fill="white"></rect>
</clipPath>
<image id="image0_2336_9709" width="640" height="400" preserveAspectRatio="none"></image>
<image id="image1_2336_9709" width="288" height="288" preserveAspectRatio="none"></image>
<image id="image2_2336_9709" width="1200" height="1200" preserveAspectRatio="none"></image>
</defs>
</svg>